<svg width="12" height="17" viewBox="0 0 12 17" fill="none" xmlns="http://www.w3.org/2000/svg">
<path d="M1.29883 16.1523H3.52539C4.375 16.1523 4.82422 15.7031 4.82422 14.8438V1.29883C4.82422 0.400391 4.375 0 3.52539 0H1.29883C0.449219 0 0 0.439453 0 1.29883V14.8438C0 15.7031 0.449219 16.1523 1.29883 16.1523ZM8.39844 16.1523H10.6152C11.4746 16.1523 11.9141 15.7031 11.9141 14.8438V1.29883C11.9141 0.400391 11.4746 0 10.6152 0H8.39844C7.53906 0 7.08984 0.439453 7.08984 1.29883V14.8438C7.08984 15.7031 7.53906 16.1523 8.39844 16.1523Z" fill="black" fill-opacity="0.85"/>
</svg>
